<?xml version="1.0" standalone="no"?>
<!DOCTYPE svg PUBLIC "-//W3C//DTD SVG 20010904//EN"
 "http://www.w3.org/TR/2001/REC-SVG-20010904/DTD/svg10.dtd">
<svg version="1.0" xmlns="http://www.w3.org/2000/svg"
 width="1514.000000pt" height="1514.000000pt" viewBox="0 0 1514.000000 1514.000000"
 preserveAspectRatio="xMidYMid meet">

<g transform="translate(0.000000,1514.000000) scale(0.100000,-0.100000)"
fill="#000000" stroke="none">
<path d="M9003 14140 c-12 -5 -29 -19 -37 -32 -8 -13 -170 -545 -360 -1183
-189 -638 -389 -1308 -445 -1490 -211 -694 -269 -989 -258 -1310 9 -246 45
-368 163 -548 140 -213 170 -311 161 -526 -3 -78 -15 -176 -26 -229 -19 -85
-249 -892 -257 -901 -7 -7 -256 232 -744 714 -901 890 -1403 1366 -2535 2405
-242 221 -543 501 -670 621 -267 252 -349 323 -462 396 -108 71 -185 104 -255
110 -78 8 -115 -9 -139 -61 -80 -177 100 -622 495 -1221 424 -642 987 -1330
1806 -2205 293 -313 1023 -1041 1084 -1081 139 -91 297 -107 631 -64 123 16
228 25 254 21 50 -7 68 -19 231 -160 63 -55 116 -100 118 -102 2 -1 -62 -226
-142 -501 -274 -940 -506 -1766 -664 -2366 l-39 -148 56 6 c343 40 850 121
867 138 16 17 201 855 415 1881 49 237 91 431 93 433 9 10 541 -550 1081
-1137 215 -234 419 -455 455 -492 l65 -68 150 65 c180 79 635 304 635 315 0 7
-236 221 -600 546 -74 66 -340 300 -590 519 -875 767 -1061 936 -1056 953 3
10 48 226 101 482 135 654 152 730 192 844 89 258 186 378 403 501 191 108
259 163 354 289 202 266 320 620 476 1426 33 173 168 850 300 1504 132 653
240 1203 240 1220 0 41 -24 75 -66 92 -65 27 -149 10 -174 -35 -5 -11 -172
-671 -370 -1468 -198 -796 -368 -1465 -377 -1486 -50 -115 -163 -93 -163 31 0
22 151 700 336 1508 304 1332 334 1472 324 1506 -14 48 -43 68 -100 68 -47 0
-79 -19 -98 -55 -6 -11 -175 -668 -377 -1460 -202 -792 -376 -1456 -386 -1476
-23 -46 -65 -65 -103 -48 -30 14 -56 55 -56 88 0 11 158 671 350 1465 193 795
350 1464 350 1487 0 33 -6 47 -34 75 -29 29 -41 34 -79 34 -56 0 -91 -32 -112
-104 -8 -28 -181 -679 -384 -1446 -204 -767 -381 -1415 -393 -1439 -13 -25
-35 -53 -50 -64 -55 -40 -112 7 -111 92 0 25 161 691 362 1495 198 797 361
1458 361 1469 0 74 -118 139 -197 107z"/>
<path d="M11045 5024 c-75 -44 -542 -277 -653 -327 -73 -32 -82 -39 -73 -55
16 -29 628 -629 675 -661 120 -82 255 -68 409 42 89 63 150 136 200 236 40 80
42 90 42 170 0 76 -3 92 -27 133 -28 47 -484 499 -503 497 -5 0 -37 -16 -70
-35z"/>
<path d="M7575 3873 c-156 -25 -574 -79 -705 -91 l-85 -7 -21 -85 c-110 -440
-134 -554 -134 -622 0 -132 59 -208 225 -289 86 -42 114 -50 199 -60 120 -14
216 -1 289 39 55 30 87 66 117 134 17 39 264 1000 257 1003 -1 1 -65 -9 -142
-22z"/>
</g>
</svg>
